<svg xmlns="http://www.w3.org/2000/svg" viewBox="0 0 1024 1024" style="fill: rgb(35, 173, 229)"><path d="M801 237l-51 .002 44-45c10-10 15-22.667 15-38s-5-28-15-38-22.667-15-38-15-28.333 5-39 15l-128 121H436l-129-121c-10-10-22.667-15-38-15s-28 5-38 15-15 22.667-15 38 5 28 15 38l44 45h-51c-46 1.333-83.833 17-113.5 47s-45.167 67.667-46.5 113v346c1.333 49.333 16.833 89.166 46.5 119.499S178 908.667 224 910h570c46-1.333 84-16.833 114-46.5S953.333 796 954 750V397c2-45.333-11.5-83-40.5-113S847 238.333 801 237zm45 506.002c-.667 16-6.504 29.667-17.504 41s-24.5 17-40.5 17h-557c-16 0-29.667-5.667-41-17s-17-25-17-41v-339c.667-16.667 6.334-30.334 17.001-41.001s24.334-16.334 41.001-17.001h557c16.667.667 30.334 6.334 41.001 17.001s16.334 24.334 17.001 41.001v339zm-500.004-282c-16 .667-29.504 6.5-40.504 17.5s-16.833 24.5-17.5 40.5v58c.667 16 6.334 29.5 17.001 40.5s24.334 16.5 41.001 16.5 30.334-5.5 41.001-16.5 16.334-24.5 17.001-40.5v-58c-.667-16-6.5-29.5-17.5-40.5s-24.5-16.833-40.5-17.5zm332.996 0c-16 .667-29.504 6.5-40.504 17.5s-16.833 24.5-17.5 40.5v58c.667 16 6.334 29.5 17.001 40.5s24.334 16.5 41.001 16.5 30.334-5.5 41.001-16.5 16.334-24.5 17.001-40.5v-58c-.667-16-6.5-29.5-17.5-40.5s-24.5-16.833-40.5-17.5z"/></svg>